<svg width="1200" height="630" viewBox="0 0 1200 630" fill="none" xmlns="http://www.w3.org/2000/svg">
<g clip-path="url(#clip0_35_2)">
<rect width="1200" height="630" fill="#070707"/>
<g filter="url(#filter0_f_35_2)">
<circle cx="600" cy="901" r="360" fill="#EC4524"/>
</g>
<path d="M891 423.616L891 901L774.617 901L774.617 423.616L891 423.616ZM658.235 179.15L774.617 179.15L774.617 423.616L658.235 423.616L658.235 179.15L541.851 179.15L541.851 85.9999L658.235 86L658.235 179.15ZM541.851 423.616L425.468 423.616L425.468 179.15L541.851 179.15L541.851 423.616ZM425.383 423.616L425.383 901L309 901L309 423.616L425.383 423.616Z" fill="white" fill-opacity="0.03"/>
<path d="M356.054 319.5C337.754 319.5 326.254 307.6 326.254 283C326.254 258.4 337.754 246.5 361.654 246.5C383.654 246.5 396.154 253.7 396.154 272.3H378.154C378.154 265.7 369.654 264 361.654 264C350.054 264 345.754 269.7 345.754 282.9C345.754 296.3 351.654 302 361.454 302C366.854 302 371.154 298.9 374.654 294.6H359.654V278.6H396.654V318H378.654V307.4C372.554 314.5 364.954 319.5 356.054 319.5ZM400.695 283C400.695 259 412.395 246.5 436.695 246.5C460.995 246.5 472.695 259 472.695 283C472.695 307 460.995 319.5 436.695 319.5C412.395 319.5 400.695 307 400.695 283ZM420.195 283C420.195 295.6 425.495 302 436.695 302C447.895 302 453.195 295.6 453.195 283C453.195 270.4 447.895 264 436.695 264C424.495 264 420.195 270.4 420.195 283ZM500.699 318V248H530.199C554.499 248 566.199 259.9 566.199 283C566.199 306.1 554.499 318 530.199 318H500.699ZM519.699 301H530.199C541.399 301 546.699 294.9 546.699 282.9C546.699 271.1 541.399 265 530.199 265H519.699V301ZM571.234 318V248H590.234V318H571.234ZM625.038 319.5C606.738 319.5 595.238 307.6 595.238 283C595.238 258.4 606.738 246.5 630.638 246.5C652.638 246.5 665.138 253.7 665.138 272.3H647.138C647.138 265.7 638.638 264 630.638 264C619.038 264 614.738 269.7 614.738 282.9C614.738 296.3 620.638 302 630.438 302C635.838 302 640.138 298.9 643.638 294.6H628.638V278.6H665.638V318H647.638V307.4C641.538 314.5 633.938 319.5 625.038 319.5ZM671.68 318V248H690.68V318H671.68ZM713.684 318V265H693.684V248H752.684V265H732.684V318H713.684ZM743.055 318L769.755 248H790.055L816.755 318H796.455L792.955 308.9H766.855L763.355 318H743.055ZM773.355 291.9H786.455L779.955 274.6L773.355 291.9ZM816.781 318V248H835.781V301H873.781V318H816.781ZM304.401 376.5C288.401 374.2 277.401 368.9 277.401 353.9C277.401 337.1 287.401 330.5 309.801 330.5C329.301 330.5 341.301 336.7 341.301 354.3H323.301C323.301 348.7 316.101 348 308.001 348C300.601 348 296.901 349.4 296.901 352.4C296.901 355.4 300.501 355.6 313.601 357.4C330.801 359.8 342.201 365.1 342.201 381C342.201 396.9 332.001 403.5 309.301 403.5C289.501 403.5 277.301 397.3 277.301 379.7H295.301C295.301 385.3 302.801 386 311.201 386C318.901 386 322.701 385.1 322.701 382C322.701 378.1 314.001 377.9 304.401 376.5ZM363.199 402V349H343.199V332H402.199V349H382.199V402H363.199ZM392.57 402L419.27 332H439.57L466.27 402H445.97L442.47 392.9H416.37L412.87 402H392.57ZM422.87 375.9H435.97L429.47 358.6L422.87 375.9ZM480.633 402V370.3L455.633 332H478.133L490.133 350.4L502.133 332H524.633L499.633 370.3V402H480.633ZM612.352 332L587.652 402H567.352L542.652 332H562.952L577.552 373.2L592.052 332H612.352ZM612.375 402V332H631.375V402H612.375ZM663.479 376.5C647.479 374.2 636.479 368.9 636.479 353.9C636.479 337.1 646.479 330.5 668.879 330.5C688.379 330.5 700.379 336.7 700.379 354.3H682.379C682.379 348.7 675.179 348 667.079 348C659.679 348 655.979 349.4 655.979 352.4C655.979 355.4 659.579 355.6 672.679 357.4C689.879 359.8 701.279 365.1 701.279 381C701.279 396.9 691.079 403.5 668.379 403.5C648.579 403.5 636.379 397.3 636.379 379.7H654.379C654.379 385.3 661.879 386 670.279 386C677.979 386 681.779 385.1 681.779 382C681.779 378.1 673.079 377.9 663.479 376.5ZM706.277 402V332H725.277V402H706.277ZM732.281 402V332H767.081C789.081 332 794.781 339.4 794.781 353.7C794.781 358.3 793.381 362.1 790.881 365.3C795.481 368.9 797.781 373.9 797.781 380.2C797.781 394.6 790.781 402 767.781 402H732.281ZM751.281 358.5H765.681C773.181 358.5 775.281 357 775.281 353.7C775.281 350.5 772.981 349 765.481 349H751.281V358.5ZM751.281 385H767.781C775.781 385 778.281 383.4 778.281 380.2C778.281 377.1 775.981 375.5 767.981 375.5H751.281V385ZM801.742 402V332H820.742V385H858.742V402H801.742ZM862.707 402V332H920.707V349H881.707V358.5H916.707V375.5H881.707V385H921.707V402H862.707Z" fill="white"/>
<path d="M1110.32 558V597.199H1131.82V602.258H1110.32V597.199H1104V558H1110.32Z" fill="white"/>
<path d="M1132.39 583.924V558H1138.71V583.924H1132.39ZM1145.03 597.199H1138.71V583.924H1145.03V597.199H1151.35V602.258H1145.03V597.199ZM1151.35 583.924H1157.67V597.199H1151.35V583.924ZM1157.68 583.924V558H1164V583.924H1157.68Z" fill="white"/>
</g>
<defs>
<filter id="filter0_f_35_2" x="-260" y="41" width="1720" height="1720" filterUnits="userSpaceOnUse" color-interpolation-filters="sRGB">
<feFlood flood-opacity="0" result="BackgroundImageFix"/>
<feBlend mode="normal" in="SourceGraphic" in2="BackgroundImageFix" result="shape"/>
<feGaussianBlur stdDeviation="250" result="effect1_foregroundBlur_35_2"/>
</filter>
<clipPath id="clip0_35_2">
<rect width="1200" height="630" fill="white"/>
</clipPath>
</defs>
</svg>
